<mxfile host="app.diagrams.net" modified="2023-12-03T14:33:12.651Z" agent="Mozilla/5.0 (Macintosh; Intel Mac OS X 10_15_7) AppleWebKit/537.36 (KHTML, like Gecko) Chrome/119.0.0.0 Safari/537.36" version="22.1.5" etag="8C8o1x2F1W9erTwOJaGo" type="github">
  <diagram name="Page-1" id="4s81jR1X-dSNfOOPIHXu">
    <mxGraphModel>
      <root>
        <mxCell id="0" />
        <mxCell id="1" parent="0" />
      </root>
    </mxGraphModel>
  </diagram>
</mxfile>
